The 2011 Christmas Pageant in Adelaide South Australia.

Recorded from CH9 in HD 720p.

I will continue to seed this for 8 hours a day until January 15th 2012.
For all those who missed it either live or on TV!
Sorry the quality is average, still working on tweaking settings for recorded TV.
When I get it right I will upload a cleanner copy with hopefully less file size.
But, its watchable... more so on smaller devices where grain-i-ness isnt as prominent.

==========================================================================
Video Settings:

Format                           : DivX
File size                        : 642 MiB
Duration                         : 1h 29mn
Overall bit rate                 : 998 Kbps

Video
ID                               : 0
Format                           : MPEG-4 Visual
Format settings, BVOP            : 1
Format settings, QPel            : No
Format settings, GMC             : No warppoints
Format settings, Matrix          : Default (H.263)
Muxing mode                      : Packed bitstream
Codec ID                         : DX50
Codec ID/Hint                    : DivX 5
Duration                         : 1h 29mn
Bit rate                         : 861 Kbps
Width                            : 720 pixels
Height                           : 576 pixels
Display aspect ratio             : 16:9
Frame rate                       : 25.000 fps
Standard                         : PAL
Color space                      : YUV
Chroma subsampling               : 4:2:0
Bit depth                        : 8 bits
Scan type                        : Progressive
Compression mode                 : Lossy
Bits/(Pixel*Frame)               : 0.083
Stream size                      : 553 MiB (86%)
Title                            : Video 
Writing library                  : DivX 2151

Audio
ID                               : 1
Format                           : MPEG Audio
Format version                   : Version 1
Format profile                   : Layer 3
Codec ID                         : 55
Codec ID/Hint                    : MP3
Duration                         : 1h 29mn
Bit rate mode                    : Constant
Bit rate                         : 128 Kbps
Channel(s)                       : 2 channels
Sampling rate                    : 48.0 KHz
Compression mode                 : Lossy
Stream size                      : 82.3 MiB (13%)
Alignment                        : Split accross interleaves
Interleave, duration             : 40 ms (1.00 video frame)
Interleave, preload duration     : 500 ms
Title                            : Audio 